<svg data-name="Layer 1" xmlns="http://www.w3.org/2000/svg" width="72" height="40" viewBox="0 0 72 40"><rect width="72" height="40" rx="20" fill="grey"/><path d="M37.27 27.39a7.92 7.92 0 003.22-.68 7.23 7.23 0 002.61-1.95l1.93 2a10.15 10.15 0 01-3.51 2.48 10.85 10.85 0 01-4.33.91 10.33 10.33 0 01-4-.79 10.06 10.06 0 010-18.64 10.33 10.33 0 014-.79 11.16 11.16 0 014.41.91 9.62 9.62 0 013.49 2.48l-2 2a7.65 7.65 0 00-2.69-2 7.86 7.86 0 00-3.25-.7 7.25 7.25 0 00-2.88.56A6.76 6.76 0 0032 14.72a7.34 7.34 0 00-1.53 2.35 7.95 7.95 0 000 5.86 7.08 7.08 0 003.88 3.89 7.45 7.45 0 002.92.57z" fill="#fff"/></svg>