<svg version="1.1" id="Layer_1" xmlns="http://www.w3.org/2000/svg" x="0" y="0" width="72" height="40" viewBox="0 0 72 40"><style>.st1{fill:#fff;}</style><path d="M52 40H20C9 40 0 31 0 20S9 0 20 0h32c11 0 20 9 20 20s-9 20-20 20z" fill-rule="evenodd" clip-rule="evenodd" fill="grey"/><path class="st1" d="M17.06 12.98l-.02-2.6 16.71-.16.02 2.6-6.89.06.16 17-2.94.03-.16-17-6.88.07z"/><path class="st1" d="M39.2 29.77l-.18-19.6 8.9-.08c1.94-.02 3.52.5 4.73 1.57 1.21 1.06 1.83 2.45 1.85 4.17.01 1.29-.34 2.41-1.06 3.36-.72.95-1.69 1.64-2.92 2.06l4.45 8.39-3.25.03-4.14-8-5.52.05.08 8.04-2.94.01zm8.49-17.1l-5.71.05.06 6.55 5.71-.05c1.14-.01 2.06-.32 2.75-.94.69-.61 1.04-1.41 1.03-2.38-.01-.99-.37-1.78-1.07-2.37-.71-.58-1.63-.87-2.77-.86z"/></svg>