<?xml version="1.0" ?>
<svg enable-background="new 0 0 32 32" height="16px" id="svg2" version="1.1" viewBox="0 0 32 32" width="16px" xml:space="preserve" xmlns="http://www.w3.org/2000/svg" xmlns:cc="http://creativecommons.org/ns#" xmlns:dc="http://purl.org/dc/elements/1.1/" xmlns:inkscape="http://www.inkscape.org/namespaces/inkscape" xmlns:rdf="http://www.w3.org/1999/02/22-rdf-syntax-ns#" xmlns:sodipodi="http://sodipodi.sourceforge.net/DTD/sodipodi-0.dtd" xmlns:svg="http://www.w3.org/2000/svg">
    <g id="background">
        <rect fill="none" height="16" width="16"/>
    </g>
    <g id="category_x5F_add" fill="#424242">
        <g>
            <polygon points="28,22 24.002,22 24.002,18 22,18 22,22 18,22 18,24 22,24 22,28 24.002,28 24.002,24 28,24   "/>
        </g>
        <path d="M23,14c-1.054,0-2.061,0.19-3,0.522V12h-8v2H8v-4h2V2H2v8h4v15.999h6V30h5.349c1.545,1.248,3.51,1.999,5.651,2   c4.971-0.002,8.998-4.029,9-9C31.998,18.027,27.971,14,23,14z M14.059,22H12v2H8.001L8,15.998h4V20h2.522   C14.297,20.638,14.135,21.306,14.059,22z M23,29.883c-3.801-0.009-6.876-3.084-6.885-6.883c0.009-3.801,3.084-6.876,6.885-6.885   c3.799,0.009,6.874,3.084,6.883,6.885C29.874,26.799,26.799,29.874,23,29.883z"/>
    </g>
</svg>
