<svg width="16" height="16" xmlns="http://www.w3.org/2000/svg">

 <g>
  <title>background</title>
  <rect fill="none" id="canvas_background" height="402" width="582" y="-1" x="-1"/>
 </g>
 <g>
  <title>Layer 1</title>
  <path stroke="null" id="svg_1" d="m8.429098,4.490331l3.432781,0l0,-3.509669l-7.723758,0l0,3.509669l3.432781,0l0,1.871531l-6.007368,1.638138l6.007368,1.638138l0,1.871531l-2.574586,0c-0.948306,0 -1.716391,0.785288 -1.716391,1.754834c0,0.969546 0.768085,1.754834 1.716391,1.754834l6.007368,0c0.948306,0 1.716391,-0.785288 1.716391,-1.754834c0,-0.969546 -0.768085,-1.754834 -1.716391,-1.754834l-2.574586,0l0,-1.871531l6.007368,-1.638138l-6.007368,-1.638138l0,-1.871531z"/>
 </g>
</svg>
