<svg id="Layer_1" data-name="Layer 1" xmlns="http://www.w3.org/2000/svg" width="72" height="40" viewBox="0 0 72 40"><defs><style>.cls-2{fill:#fff}</style></defs><path d="M20 40A20.06 20.06 0 010 20 20.06 20.06 0 0120 0h32a20.06 20.06 0 0120 20 20.06 20.06 0 01-20 20" fill="red" fill-rule="evenodd"/><path class="cls-2" d="M7.47 29.8V10.2h9.07a6.57 6.57 0 014.63 1.64A5.48 5.48 0 0123 16.08a5.41 5.41 0 01-1.79 4.2 6.61 6.61 0 01-4.62 1.62h-6.18v7.9zm8.76-17h-5.82v6.63h5.82A3.93 3.93 0 0019 18.5a3.07 3.07 0 001-2.42 3 3 0 00-1-2.41 4 4 0 00-2.77-.89z"/><path class="cls-2" d="M28.78 29.8V10.2h2.94v17H43v2.6z"/><path class="cls-2" d="M48.77 29.8V10.2h8.9a6.84 6.84 0 014.72 1.61A5.36 5.36 0 0164.2 16a5.3 5.3 0 01-1.1 3.34 6 6 0 01-2.94 2l4.37 8.43h-3.25l-4.06-8h-5.51v8zm8.65-17h-5.71v6.55h5.71a4.1 4.1 0 002.76-.91 3 3 0 001-2.37 3 3 0 00-1-2.38 4.09 4.09 0 00-2.76-.91z"/></svg>