<svg id="Layer_1" data-name="Layer 1" xmlns="http://www.w3.org/2000/svg" viewBox="0 0 72 40"><defs><style>.cls-1{fill:#38812f;}.cls-2{fill:#fff;}</style></defs><rect class="cls-1" width="72" height="40" rx="20"/><path class="cls-2" d="M37.27,27.39a7.92,7.92,0,0,0,3.22-.68,7.23,7.23,0,0,0,2.61-1.95l1.93,2a10.15,10.15,0,0,1-3.51,2.48,10.85,10.85,0,0,1-4.33.91,10.33,10.33,0,0,1-4-.79,10.06,10.06,0,0,1,0-18.64,10.33,10.33,0,0,1,4-.79,11.16,11.16,0,0,1,4.41.91,9.62,9.62,0,0,1,3.49,2.48l-2,2a7.65,7.65,0,0,0-2.69-2,7.86,7.86,0,0,0-3.25-.7,7.25,7.25,0,0,0-2.88.56A6.76,6.76,0,0,0,32,14.72a7.34,7.34,0,0,0-1.53,2.35,7.95,7.95,0,0,0,0,5.86,7.08,7.08,0,0,0,3.88,3.89A7.45,7.45,0,0,0,37.27,27.39Z" transform="translate(0 0)"/></svg>