<svg id="Layer_1" data-name="Layer 1" xmlns="http://www.w3.org/2000/svg" width="72" height="40" viewBox="0 0 72 40"><defs><style>.cls-1{fill:#38812f;}.cls-2{fill:#fff;}</style></defs><rect class="cls-1" width="72" height="40" rx="20"/><path class="cls-2" d="M26.72,27.39a8,8,0,0,0,3.22-.68,7.28,7.28,0,0,0,2.6-1.95l1.93,2A10.15,10.15,0,0,1,31,29.2a10.82,10.82,0,0,1-4.33.91,10.32,10.32,0,0,1-4-.79A10,10,0,0,1,16.36,20a10,10,0,0,1,6.23-9.32,10.32,10.32,0,0,1,4-.79A11.12,11.12,0,0,1,31,10.8a9.54,9.54,0,0,1,3.49,2.48l-2,2a7.56,7.56,0,0,0-2.69-2,7.82,7.82,0,0,0-3.25-.7,7.32,7.32,0,0,0-2.88.56,6.76,6.76,0,0,0-2.31,1.55,7.79,7.79,0,0,0-1.53,8.21,7.08,7.08,0,0,0,3.88,3.89A7.5,7.5,0,0,0,26.72,27.39Z" transform="translate(0 0)"/><path class="cls-2" d="M38.93,12.8V10.2H55.64v2.6H48.75v17H45.81v-17Z" transform="translate(0 0)"/></svg>