<svg id="Layer_1" data-name="Layer 1" xmlns="http://www.w3.org/2000/svg" viewBox="0 0 72 40"><defs><style>.cls-1{fill:#38812f;}.cls-2{fill:#fff;}</style></defs><rect class="cls-1" width="72" height="40" rx="20"/><path class="cls-2" d="M16.29,27.39a8,8,0,0,0,3.22-.68,7.28,7.28,0,0,0,2.6-1.95l1.93,2a10.15,10.15,0,0,1-3.51,2.48,10.82,10.82,0,0,1-4.33.91,10.32,10.32,0,0,1-4-.79A10,10,0,0,1,5.93,20a10,10,0,0,1,6.23-9.32,10.32,10.32,0,0,1,4-.79,11.16,11.16,0,0,1,4.41.91,9.54,9.54,0,0,1,3.49,2.48l-2,2a7.56,7.56,0,0,0-2.69-2,7.82,7.82,0,0,0-3.25-.7,7.32,7.32,0,0,0-2.88.56A6.76,6.76,0,0,0,11,14.72a7.79,7.79,0,0,0-1.53,8.21,7.08,7.08,0,0,0,3.88,3.89A7.5,7.5,0,0,0,16.29,27.39Z" transform="translate(0 0)"/><path class="cls-2" d="M28.5,12.8V10.2H45.21v2.6H38.32v17H35.38v-17Z" transform="translate(0 0)"/><path class="cls-2" d="M50.48,10.2H59a7.14,7.14,0,0,1,4.61,1.41,4.63,4.63,0,0,1,1.75,3.77,4.53,4.53,0,0,1-.73,2.51,5,5,0,0,1-2,1.72,5.75,5.75,0,0,1,2.53,1.82,4.38,4.38,0,0,1,.94,2.8,4.94,4.94,0,0,1-1.85,4,7.42,7.42,0,0,1-4.9,1.53H50.48Zm8.31,2.49H53.42v5.83h5.37a4.1,4.1,0,0,0,2.63-.79,2.56,2.56,0,0,0,1-2.13,2.55,2.55,0,0,0-1-2.12A4,4,0,0,0,58.79,12.69Zm.31,14.62A4.55,4.55,0,0,0,62,26.43a3,3,0,0,0,0-4.67,4.49,4.49,0,0,0-2.91-.89H53.42v6.44Z" transform="translate(0 0)"/></svg>