<svg id="Layer_1" data-name="Layer 1" xmlns="http://www.w3.org/2000/svg" viewBox="0 0 72 40"><defs><style>.cls-1{fill:#38812f;}.cls-2{fill:#fff;}</style></defs><path class="cls-1" d="M20,0H52A20,20,0,0,1,72,20h0A20,20,0,0,1,52,40H20A20,20,0,0,1,0,20H0A20,20,0,0,1,20,0Z"/><path class="cls-2" d="M17.09,10.19H20L30.89,24.72V10.19h2.77v19.6H31.09l-11.23-15v15H17.09Z"/><path class="cls-2" d="M38.7,26.54l1.79-2.07a12.5,12.5,0,0,0,3.27,2.31,8.21,8.21,0,0,0,3.48.77,5.87,5.87,0,0,0,3.43-.93A2.76,2.76,0,0,0,52,24.27a2.36,2.36,0,0,0-.92-2,6.87,6.87,0,0,0-3-1.08l-3.28-.53a7.51,7.51,0,0,1-4-1.72,4.47,4.47,0,0,1-1.33-3.38,4.91,4.91,0,0,1,2-4.09,8.31,8.31,0,0,1,5.24-1.54,13.12,13.12,0,0,1,4.17.69,12.63,12.63,0,0,1,3.72,2l-1.7,2.21A13.14,13.14,0,0,0,49.71,13a9.1,9.1,0,0,0-3.22-.6,5.3,5.3,0,0,0-3.08.81,2.43,2.43,0,0,0-1.18,2.1A2.2,2.2,0,0,0,43,17.17a6.15,6.15,0,0,0,2.69.94l3.16.5a8.82,8.82,0,0,1,4.55,1.84,4.57,4.57,0,0,1,1.47,3.6,5.37,5.37,0,0,1-2.14,4.36,7.37,7.37,0,0,1-2.48,1.22,11.12,11.12,0,0,1-3.19.44,11.37,11.37,0,0,1-4.53-.93A11.93,11.93,0,0,1,38.7,26.54Z"/></svg>