<svg id="Layer_1" data-name="Layer 1" xmlns="http://www.w3.org/2000/svg" viewBox="0 0 72 40"><defs><style>.cls-1{fill:#38812f;}.cls-2{fill:#fff;}</style></defs><rect class="cls-1" width="72" height="40" rx="20"/><path class="cls-2" d="M18.23,29.8V10.2h9.08a6.58,6.58,0,0,1,4.63,1.64,5.48,5.48,0,0,1,1.78,4.24,5.41,5.41,0,0,1-1.79,4.2,6.64,6.64,0,0,1-4.62,1.62H21.17v7.9Zm8.77-17H21.17v6.63H27a3.93,3.93,0,0,0,2.73-.91,3.07,3.07,0,0,0,1-2.42,3,3,0,0,0-1-2.41A4,4,0,0,0,27,12.78Z" transform="translate(0 0)"/><path class="cls-2" d="M39.54,29.8V10.2h2.94v17H53.77v2.6Z" transform="translate(0 0)"/></svg>