<svg id="Layer_1" data-name="Layer 1" xmlns="http://www.w3.org/2000/svg" width="72" height="40" viewBox="0 0 72 40"><defs><style>.cls-1{fill:#38812f;fill-rule:evenodd;}.cls-2{fill:#fff;}</style></defs><path class="cls-1" d="M20,40A20.06,20.06,0,0,1,0,20H0A20.06,20.06,0,0,1,20,0H52A20.06,20.06,0,0,1,72,20h0A20.06,20.06,0,0,1,52,40" transform="translate(0 0)"/><path class="cls-2" d="M7.47,29.8V10.2h9.07a6.57,6.57,0,0,1,4.63,1.64A5.48,5.48,0,0,1,23,16.08a5.41,5.41,0,0,1-1.79,4.2,6.61,6.61,0,0,1-4.62,1.62H10.41v7.9Zm8.76-17H10.41v6.63h5.82A3.93,3.93,0,0,0,19,18.5a3.07,3.07,0,0,0,1-2.42,3,3,0,0,0-1-2.41A4,4,0,0,0,16.23,12.78Z" transform="translate(0 0)"/><path class="cls-2" d="M28.78,29.8V10.2h2.94v17H43v2.6Z" transform="translate(0 0)"/><path class="cls-2" d="M48.77,29.8V10.2h8.9a6.84,6.84,0,0,1,4.72,1.61A5.36,5.36,0,0,1,64.2,16a5.3,5.3,0,0,1-1.1,3.34,6,6,0,0,1-2.94,2l4.37,8.43H61.28l-4.06-8H51.71v8Zm8.65-17H51.71v6.55h5.71a4.1,4.1,0,0,0,2.76-.91,3,3,0,0,0,1-2.37,3,3,0,0,0-1-2.38A4.09,4.09,0,0,0,57.42,12.78Z" transform="translate(0 0)"/></svg>