<?xml version="1.0" encoding="utf-8"?>
<!-- Generator: Adobe Illustrator 24.1.0, SVG Export Plug-In . SVG Version: 6.00 Build 0)  -->
<svg version="1.1" id="Layer_1" xmlns="http://www.w3.org/2000/svg" xmlns:xlink="http://www.w3.org/1999/xlink" x="0px" y="0px"
	 viewBox="0 0 72 40" style="enable-background:new 0 0 72 40;" xml:space="preserve">
<style type="text/css">
	.st0{fill-rule:evenodd;clip-rule:evenodd;fill:#38812F;}
	.st1{fill:#FFFFFF;}
</style>
<path class="st0" d="M52,40H20C9,40,0,31,0,20v0C0,9,9,0,20,0l32,0c11,0,20,9,20,20v0C72,31,63,40,52,40z"/>
<g>
	<path class="st1" d="M17.56,29.94l-0.18-19.6l9.07-0.08c1.9-0.02,3.45,0.51,4.65,1.59c1.2,1.08,1.8,2.49,1.82,4.22
		c0.02,1.72-0.57,3.12-1.75,4.22c-1.18,1.09-2.72,1.65-4.6,1.67l-6.13,0.06l0.07,7.9L17.56,29.94z M26.16,12.84l-5.82,0.05
		l0.06,6.64l5.82-0.05c1.14-0.01,2.05-0.32,2.72-0.94c0.67-0.61,1.01-1.42,1-2.43c-0.01-1.01-0.36-1.81-1.04-2.4
		C28.21,13.12,27.3,12.82,26.16,12.84z"/>
	<path class="st1" d="M38.86,29.74l-0.18-19.6l8.9-0.08c1.94-0.02,3.52,0.5,4.73,1.57c1.21,1.06,1.83,2.45,1.85,4.17
		c0.01,1.29-0.34,2.41-1.06,3.36c-0.72,0.95-1.69,1.64-2.92,2.06l4.45,8.39l-3.25,0.03l-4.14-8l-5.52,0.05l0.08,8.04L38.86,29.74z
		 M47.36,12.64l-5.71,0.05l0.06,6.55l5.71-0.05c1.14-0.01,2.06-0.32,2.75-0.94c0.69-0.61,1.04-1.41,1.03-2.38
		c-0.01-0.99-0.37-1.78-1.07-2.37C49.42,12.92,48.49,12.63,47.36,12.64z"/>
</g>
</svg>
