<svg id="Layer_1" data-name="Layer 1" xmlns="http://www.w3.org/2000/svg" viewBox="0 0 72 40"><defs><style>.cls-1{fill:#38812f;}.cls-2{fill:#fff;}</style></defs><rect class="cls-1" width="72" height="40" rx="20"/><path class="cls-2" d="M17.21,12.8V10.2H33.93v2.6H27v17H24.1v-17Z" transform="translate(0 0)"/><path class="cls-2" d="M39.19,10.2h8.49a7.1,7.1,0,0,1,4.6,1.41A4.6,4.6,0,0,1,54,15.38a4.45,4.45,0,0,1-.73,2.51,4.89,4.89,0,0,1-2,1.72,5.81,5.81,0,0,1,2.53,1.82,4.44,4.44,0,0,1,.94,2.8,5,5,0,0,1-1.85,4A7.44,7.44,0,0,1,48,29.8H39.19Zm8.32,2.49H42.13v5.83h5.38a4.1,4.1,0,0,0,2.63-.79,2.58,2.58,0,0,0,1-2.13,2.58,2.58,0,0,0-1-2.12A4,4,0,0,0,47.51,12.69Zm.31,14.62a4.55,4.55,0,0,0,2.91-.88,3,3,0,0,0,0-4.67,4.49,4.49,0,0,0-2.91-.89H42.13v6.44Z" transform="translate(0 0)"/></svg>