<svg id="f0d53687-5b26-43fa-a44c-e754b60c9eda" data-name="Layer 1" xmlns="http://www.w3.org/2000/svg" width="100" height="100" viewBox="0 0 100 100"><defs><style>.f2bdefb2-85eb-4367-9390-afa6848ab105{fill:#fff;}</style></defs><title>Icon-Red_Hat-Tekton-100px-active-RGB</title><path class="f2bdefb2-85eb-4367-9390-afa6848ab105" d="M50.88,27.06a.47.47,0,0,0,.48-.48.48.48,0,0,0-.48-.48.49.49,0,0,0-.48.48A.48.48,0,0,0,50.88,27.06Zm0,2.11a.48.48,0,0,0,.48-.48.47.47,0,0,0-.48-.48.48.48,0,0,0-.48.48A.49.49,0,0,0,50.88,29.17Zm-3.49-2.11a.47.47,0,0,0,.48-.48.48.48,0,0,0-.48-.48.49.49,0,0,0-.48.48A.48.48,0,0,0,47.39,27.06ZM85,15a49.5,49.5,0,1,0,0,70A49.5,49.5,0,0,0,85,15ZM39.57,27.09l.21.19.24-.15a17.35,17.35,0,0,1,8.75-2.58v8.12h.74V24.55a17.35,17.35,0,0,1,8.75,2.58l.24.15.21-.19a14.24,14.24,0,0,1,10-3.84,15.15,15.15,0,0,0-6.39,7l-.09.22.15.18a17.31,17.31,0,0,1,4,8.85l.1.72h0c.06.62.1,1.18.1,1.71v5.29a20.94,20.94,0,0,1-34.84,0V42a15.12,15.12,0,0,1,.1-1.71h0l.11-.72a17.23,17.23,0,0,1,4-8.85l.15-.18L36,30.28a15.25,15.25,0,0,0-6.39-7A14.22,14.22,0,0,1,39.57,27.09ZM30.18,37.33l-.44-.61c-.13-.19-.24-.38-.36-.58s-.25-.41-.36-.62-.21-.42-.31-.63-.2-.41-.28-.62-.18-.47-.26-.71S28,33.16,28,33s-.14-.53-.21-.79-.1-.38-.13-.57-.1-.61-.14-.92a4,4,0,0,1-.07-.48,13.56,13.56,0,0,1-.07-1.43c0-.47,0-.93.06-1.39l.06-.43c0-.31.08-.63.14-.94s.08-.34.12-.51.13-.55.21-.83.13-.36.19-.55.15-.45.24-.67a14.44,14.44,0,0,1,6.82,6.93,18.21,18.21,0,0,0-3.87,8.29l-.22-.23-.52-.6Q30.36,37.59,30.18,37.33ZM31,78.17a6.05,6.05,0,0,1,3.32-5.4A7.32,7.32,0,0,1,37,63.51V66A12.1,12.1,0,0,0,42,75.74a5.11,5.11,0,0,0-3.66,2.43Zm19.4,2.57a12.09,12.09,0,0,1,.39-3l0-.19c.06-.23.13-.46.19-.69a33.92,33.92,0,0,0-.56-15.58.38.38,0,0,0-.47-.25.39.39,0,0,0-.24.47,32.67,32.67,0,0,1,.43,15.77c-.34,0-.68,0-1,0s-.69,0-1,0a32.69,32.69,0,0,1,.43-15.77.38.38,0,0,0-.25-.47.37.37,0,0,0-.46.25,33.8,33.8,0,0,0-.61,15.39c.1.3.18.6.25.9l0,.19a11.63,11.63,0,0,1,.39,3H38.34a4.33,4.33,0,0,1,4.33-4.34H43c.36.21.73.41,1.12.59a.41.41,0,0,0,.16,0,.38.38,0,0,0,.34-.22.37.37,0,0,0-.19-.49l-.21-.11h0A11.33,11.33,0,0,1,37.78,66V62.34a11.26,11.26,0,0,1,2.41-7,21.8,21.8,0,0,0,17.89,0,11.26,11.26,0,0,1,2.41,7V66a11.34,11.34,0,0,1-6.44,10.22h0l-.21.1A.38.38,0,0,0,54,77a.28.28,0,0,0,.15,0,12.12,12.12,0,0,0,1.13-.59h.33A4.35,4.35,0,0,1,60,80.74ZM60,78.17a5.07,5.07,0,0,0-3.65-2.43A12.1,12.1,0,0,0,61.24,66V63.51A7.35,7.35,0,0,1,64,72.77a6.05,6.05,0,0,1,3.32,5.4Zm7.26-16.89-1,1.26A16.4,16.4,0,0,1,62.57,59l.66-.85a11.54,11.54,0,0,1,2.7-2.48,15.94,15.94,0,0,0,2.54,4.4A6.17,6.17,0,0,0,67.22,61.28Zm2.63-27c-.09.22-.19.43-.29.63s-.19.42-.3.63-.24.42-.37.63-.23.38-.35.56-.29.42-.44.62l-.39.51-.53.6a2.39,2.39,0,0,1-.22.23,18,18,0,0,0-3.87-8.29,14.46,14.46,0,0,1,6.83-6.93c.09.22.16.45.24.68l.19.54c.08.28.14.55.2.83s.09.34.13.51.09.62.13.93c0,.14,0,.29.06.44a12.81,12.81,0,0,1,.07,1.39,13.56,13.56,0,0,1-.07,1.43c0,.16-.05.32-.07.48s-.08.62-.14.92-.09.38-.14.58-.12.52-.2.78-.14.41-.21.61S70,34,69.85,34.26ZM73.59,59a6.45,6.45,0,0,0-1.33-.15,6.18,6.18,0,0,0-1.61.21,16.06,16.06,0,0,1-.35-3.35,14.76,14.76,0,0,1,.1-1.77,11.48,11.48,0,0,1,1.86-.16,11.17,11.17,0,0,1,2.95.4A12.24,12.24,0,0,0,73.59,59Zm7.75,4.23a2.52,2.52,0,0,1-3.43-1,6.52,6.52,0,0,0-1.71-2,8.38,8.38,0,0,1,3.93-3.29,11.51,11.51,0,0,1,2.23,2.89A2.53,2.53,0,0,1,81.34,63.21ZM43.23,46.35a4,4,0,0,0-.63,2.12,4,4,0,0,0,6.68,3,4,4,0,0,0,6.68-3,4,4,0,0,0-.63-2.12c5.51-1.13,6.75-3.59,6.75-3.59s-.67-10.09-12.94-10.09S36.48,42.76,36.48,42.76,37.72,45.22,43.23,46.35ZM56,39.41a2.74,2.74,0,0,1,2.74,2.74.38.38,0,0,1-.37.37.37.37,0,0,1-.37-.37,2,2,0,0,0-4,0,.38.38,0,0,1-.37.37.37.37,0,0,1-.37-.37A2.74,2.74,0,0,1,56,39.41Zm-6.71,4.78A7.32,7.32,0,0,1,54,45.93h0a3.26,3.26,0,0,1-2,5.8,3.2,3.2,0,0,1-2.39-1.05.39.39,0,0,0-.56,0,3.2,3.2,0,0,1-2.39,1.05,3.27,3.27,0,0,1-2-5.81A7.32,7.32,0,0,1,49.28,44.19Zm-6.71-4.78a2.74,2.74,0,0,1,2.73,2.74.37.37,0,0,1-.37.37.38.38,0,0,1-.37-.37,2,2,0,0,0-4,0,.37.37,0,0,1-.37.37.38.38,0,0,1-.37-.37A2.74,2.74,0,0,1,42.57,39.41Zm4.82-10.24a.48.48,0,0,0,.48-.48.47.47,0,0,0-.48-.48.48.48,0,0,0-.48.48A.49.49,0,0,0,47.39,29.17ZM49.28,48c1.52,0,2.74-.72,2.74-1.6s-1.22-1.6-2.74-1.6-2.74.72-2.74,1.6S47.76,48,49.28,48Z"/></svg>