<svg id="Layer_1" data-name="Layer 1" xmlns="http://www.w3.org/2000/svg" xmlns:xlink="http://www.w3.org/1999/xlink" viewBox="0 0 100 100"><defs><style>.cls-1{fill:none;}.cls-2{fill:#e03400;}.cls-3{fill:#ce2e00;}.cls-4{fill:#ededed;}.cls-5{fill:#fff;}.cls-10,.cls-6{opacity:0.5;}.cls-7{clip-path:url(#clip-path);}.cls-8{fill:#d5d5d5;}.cls-9{fill:#d9dadb;}.cls-10{fill:#c7c9ca;}</style><clipPath id="clip-path"><path class="cls-1" d="M60.67,66.51a11.73,11.73,0,0,1-23.46,0V62.86a11.73,11.73,0,0,1,23.46,0Z"/></clipPath></defs><title>Tekton-Product_Icons</title><circle class="cls-2" cx="50" cy="50" r="49.5"/><path class="cls-3" d="M85,15A49.5,49.5,0,0,1,15,85Z"/><path class="cls-4" d="M48.15,70.21a7.35,7.35,0,0,0-14.7,0,7.23,7.23,0,0,0,.68,3.08,6.06,6.06,0,0,0-3.33,5.4H42.93a5.9,5.9,0,0,0-.17-1.4A7.35,7.35,0,0,0,48.15,70.21Z"/><path class="cls-4" d="M67.08,78.69a6.05,6.05,0,0,0-3.32-5.4,7.36,7.36,0,1,0-8.63,4,5.9,5.9,0,0,0-.17,1.4Z"/><path class="cls-5" d="M61.58,67.22a2.54,2.54,0,0,1-2-4.09L63,58.68a11.48,11.48,0,0,1,19.13,1.61,2.53,2.53,0,1,1-4.45,2.42A6.42,6.42,0,0,0,67,61.79l-3.44,4.45A2.54,2.54,0,0,1,61.58,67.22Z"/><path class="cls-4" d="M72.07,54.28a11.45,11.45,0,0,0-9,4.4l-.66.85a16,16,0,0,0,3.68,3.52l1-1.26a6.42,6.42,0,0,1,10.69.92,2.53,2.53,0,1,0,4.45-2.42A11.47,11.47,0,0,0,72.07,54.28Z"/><path class="cls-5" d="M72.07,54.28a11.37,11.37,0,0,0-6.34,1.91,15.82,15.82,0,0,0,2.55,4.4,6.39,6.39,0,0,1,9.43,2.12,2.53,2.53,0,1,0,4.45-2.42A11.47,11.47,0,0,0,72.07,54.28Z"/><path class="cls-4" d="M72.07,54.28a11.6,11.6,0,0,0-1.87.15,17.53,17.53,0,0,0-.1,1.78,16,16,0,0,0,.36,3.34,6.64,6.64,0,0,1,1.61-.21,6.41,6.41,0,0,1,5.64,3.37,2.53,2.53,0,1,0,4.45-2.42A11.47,11.47,0,0,0,72.07,54.28Z"/><path class="cls-5" d="M75,54.67A12.44,12.44,0,0,0,73.4,59.5a6.34,6.34,0,0,1,4.31,3.21,2.53,2.53,0,1,0,4.45-2.42A11.46,11.46,0,0,0,75,54.67Z"/><path class="cls-4" d="M76,60.7a6.26,6.26,0,0,1,1.7,2,2.53,2.53,0,1,0,4.45-2.42,11.47,11.47,0,0,0-2.22-2.88A8.18,8.18,0,0,0,76,60.7Z"/><path class="cls-6" d="M60.67,66.51a11.73,11.73,0,0,1-23.46,0V62.86a11.73,11.73,0,0,1,23.46,0Z"/><path class="cls-5" d="M60.67,66.51a11.73,11.73,0,0,1-23.46,0V62.86a11.73,11.73,0,0,1,23.46,0Z"/><g class="cls-7"><path class="cls-4" d="M66.74,44.07a17.8,17.8,0,0,0-35.59,0v5.4a21.32,21.32,0,0,0,35.59,0Z"/></g><path class="cls-5" d="M66.74,42.47a17.8,17.8,0,0,0-35.59,0v5.39a21.31,21.31,0,0,0,35.59,0Z"/><path class="cls-5" d="M39.63,27.33a14.77,14.77,0,0,0-10.07-4,14.17,14.17,0,0,0-1.6.09A14.8,14.8,0,0,0,31.37,40,17.8,17.8,0,0,1,39.63,27.33Z"/><path class="cls-4" d="M31.37,40a17.7,17.7,0,0,1,4.06-9A14.86,14.86,0,0,0,28,23.46,14.79,14.79,0,0,0,31.37,40Z"/><path class="cls-5" d="M58.26,27.33a14.75,14.75,0,0,1,10.07-4,14.17,14.17,0,0,1,1.6.09A14.8,14.8,0,0,1,66.52,40,17.86,17.86,0,0,0,58.26,27.33Z"/><path class="cls-4" d="M66.52,40a17.78,17.78,0,0,0-4.06-9,14.86,14.86,0,0,1,7.47-7.49A14.79,14.79,0,0,1,66.52,40Z"/><path class="cls-8" d="M36.29,43.28s.38-10.1,12.65-10.1,12.94,10.1,12.94,10.1-2,4.13-12.79,4.13S36.29,43.28,36.29,43.28Z"/><path d="M44.74,43a.37.37,0,0,1-.37-.38,2,2,0,0,0-4,0A.38.38,0,0,1,40,43a.37.37,0,0,1-.37-.38,2.74,2.74,0,0,1,5.47,0A.38.38,0,0,1,44.74,43Z"/><path d="M58.16,43a.38.38,0,0,1-.37-.38,2,2,0,0,0-4,0,.38.38,0,1,1-.75,0,2.74,2.74,0,0,1,5.47,0A.37.37,0,0,1,58.16,43Z"/><path class="cls-4" d="M54,46.16h0a7.64,7.64,0,0,0-9.92,0h0a3.64,3.64,0,1,0,5,5.3A3.64,3.64,0,1,0,54,46.16Z"/><ellipse cx="49.09" cy="46.89" rx="2.74" ry="1.6"/><ellipse class="cls-4" cx="49.07" cy="54.15" rx="3.79" ry="1.43"/><rect class="cls-9" x="48.57" y="24.68" width="0.74" height="8.51"/><path class="cls-5" d="M47.28,78.11a31,31,0,0,1,.26-15.66c.05-.19.1-.37.16-.56l-4.57,3.23V72c-.16-.13,1.42,4.51,1.26,4.4l-.18.49a4.71,4.71,0,0,0-6.44,4.38H47.7a12.09,12.09,0,0,0-.39-3Z"/><path class="cls-5" d="M50.61,78.11a31.12,31.12,0,0,0,.88-7.34,30.89,30.89,0,0,0-1.14-8.32c-.05-.19-.11-.37-.16-.56l4.57,3.23V72c.16-.13-1.42,4.51-1.26,4.4l.18.49a4.71,4.71,0,0,1,6.44,4.38H50.19a11.63,11.63,0,0,1,.39-3Z"/><g class="cls-7"><path class="cls-10" d="M47.63,78.61a.36.36,0,0,1-.35-.27,33.4,33.4,0,0,1,.35-16.52.39.39,0,0,1,.47-.24.38.38,0,0,1,.24.47A32.69,32.69,0,0,0,48,78.15a.36.36,0,0,1-.26.45Z"/><path class="cls-10" d="M50.25,78.61h-.09a.37.37,0,0,1-.27-.45,32.61,32.61,0,0,0-.34-16.1.36.36,0,0,1,.24-.47.37.37,0,0,1,.46.24,33.2,33.2,0,0,1,.36,16.52A.37.37,0,0,1,50.25,78.61Z"/></g><circle class="cls-8" cx="47.2" cy="27.1" r="0.48"/><circle class="cls-8" cx="47.2" cy="29.2" r="0.48"/><circle class="cls-8" cx="50.69" cy="27.1" r="0.48"/><circle class="cls-8" cx="50.69" cy="29.2" r="0.48"/></svg>