<?xml version="1.0" encoding="utf-8"?>
<!-- Generator: Adobe Illustrator 24.1.0, SVG Export Plug-In . SVG Version: 6.00 Build 0)  -->
<svg version="1.1" id="Layer_1" xmlns="http://www.w3.org/2000/svg" xmlns:xlink="http://www.w3.org/1999/xlink" x="0px" y="0px"
	 viewBox="0 0 72 40" style="enable-background:new 0 0 72 40;" xml:space="preserve">
<style type="text/css">
	.st0{fill-rule:evenodd;clip-rule:evenodd;fill:#38812F;}
	.st1{fill:#FFFFFF;}
</style>
<path class="st0" d="M52,40H20C9,40,0,31,0,20v0C0,9,9,0,20,0l32,0c11,0,20,9,20,20v0C72,31,63,40,52,40z"/>
<g>
	<path class="st1" d="M17.06,12.98l-0.02-2.6l16.71-0.16l0.02,2.6l-6.89,0.06l0.16,17l-2.94,0.03l-0.16-17L17.06,12.98z"/>
	<path class="st1" d="M39.2,29.77l-0.18-19.6l8.9-0.08c1.94-0.02,3.52,0.5,4.73,1.57c1.21,1.06,1.83,2.45,1.85,4.17
		c0.01,1.29-0.34,2.41-1.06,3.36c-0.72,0.95-1.69,1.64-2.92,2.06l4.45,8.39l-3.25,0.03l-4.14-8l-5.52,0.05l0.08,8.04L39.2,29.77z
		 M47.69,12.67l-5.71,0.05l0.06,6.55l5.71-0.05c1.14-0.01,2.06-0.32,2.75-0.94c0.69-0.61,1.04-1.41,1.03-2.38
		c-0.01-0.99-0.37-1.78-1.07-2.37C49.75,12.95,48.83,12.66,47.69,12.67z"/>
</g>
</svg>
